<?xml version="1.0" encoding="utf-8"?>
<!-- Generator: Adobe Illustrator 18.0.0, SVG Export Plug-In . SVG Version: 6.00 Build 0)  -->
<!DOCTYPE svg PUBLIC "-//W3C//DTD SVG 1.1//EN" "http://www.w3.org/Graphics/SVG/1.1/DTD/svg11.dtd">
<svg version="1.1" id="Layer_1" xmlns="http://www.w3.org/2000/svg" xmlns:xlink="http://www.w3.org/1999/xlink" x="0px" y="0px"
	 viewBox="0 0 512 512" enable-background="new 0 0 512 512" xml:space="preserve">
<g>
	<g>
		<g>
			<path d="M471.7,436.6c-32.6,0-65.3,0-97.9,0c-64.1,0-128.2,0-192.3,0c-44.8,0-89.6,0-134.5,0c-2.8,0-6,0.3-8.8-0.1
				c-8.9-1.5-10.4-9.3-10.4-16.6c0-18,0-36.1,0-54.1c0-62.8,0-125.6,0-188.4c0-23.8,0-47.7,0-71.5c0-10.6-3.3-30.5,12.7-30.5
				c35.7,0,71.4,0,107.1,0c64.4,0,128.7,0,193.1,0c42.3,0,84.6,0,126.9,0c6.4,0,11.9,0.8,15.3,7.2c1.8,3.3,1.1,9,1.1,12.7
				c0,19.9,0,39.8,0,59.8c0,63.1,0,126.2,0,189.3c0,20.6,0,41.2,0,61.9C484.1,416.7,487.4,436.1,471.7,436.6c-9.6,0.3-9.7,15.3,0,15
				c16.1-0.5,27.4-13.1,27.4-28.9c0-5.4,0-10.7,0-16.1c0-23.7,0-47.4,0-71.1c0-62.8,0-125.7,0-188.5c0-18.2,0-36.4,0-54.7
				c0-8.9-1.5-17.1-8-24c-6.1-6.5-14.6-8-23-8c-41.8,0-83.6,0-125.4,0c-64.4,0-128.8,0-193.2,0c-36.2,0-72.5,0-108.7,0
				c-15.2,0-27.9,12.2-27.9,27.6c0,3.9,0,7.8,0,11.7c0,21.8,0,43.6,0,65.5c0,63.1,0,126.3,0,189.4c0,20.4,0,40.8,0,61.2
				c0,3.7-0.2,7.5,0.2,11.2c1.5,14.9,14.2,24.7,28.6,24.7c38.6,0,77.2,0,115.8,0c64.5,0,128.9,0,193.4,0c39.6,0,79.2,0,118.8,0
				c0.7,0,1.4,0,2,0C481.4,451.6,481.4,436.6,471.7,436.6z"/>
		</g>
	</g>
	<g>
		<g>
			<path d="M20.4,263.5c30.6,0,61.2,0,91.8,0c63.3,0,126.7,0,190,0c53.4,0,106.8,0,160.3,0c9.7,0,19.4,0,29.1,0c9.7,0,9.7-15,0-15
				c-30.6,0-61.2,0-91.8,0c-63.3,0-126.7,0-190,0c-53.4,0-106.8,0-160.3,0c-9.7,0-19.4,0-29.1,0C10.7,248.5,10.7,263.5,20.4,263.5
				L20.4,263.5z"/>
		</g>
	</g>
	<g>
		<g>
			<path d="M397.5,248.5c-15.4-0.2-29.1-9.8-34.1-24.5c-3.1-9-1.9-19.6-1.9-29c-2.5,2.5-5,5-7.5,7.5c29,0,58,0,87,0
				c-2.5-2.5-5-5-7.5-7.5c0,9.6,1,19.7-1.9,29C427.1,238.7,412.5,248.3,397.5,248.5c-9.7,0.2-9.7,15.2,0,15
				c19.9-0.3,38.2-11.7,46.4-30c5.5-12.3,4.6-25.4,4.6-38.5c0-4.1-3.4-7.5-7.5-7.5c-29,0-58,0-87,0c-4.1,0-7.5,3.4-7.5,7.5
				c0,13.1-1,26.2,4.6,38.5c8.2,18.3,26.6,29.7,46.4,30C407.2,263.7,407.2,248.7,397.5,248.5z"/>
		</g>
	</g>
	<g>
		<g>
			<g>
				<path d="M219.5,256c0-20.3,0-40.7,0-61c0-9.7-15-9.7-15,0c0,20.3,0,40.7,0,61C204.5,265.7,219.5,265.7,219.5,256L219.5,256z"/>
			</g>
		</g>
		<g>
			<g>
				<path d="M212,187.5c-9-0.2-17-5.5-20.2-14.1c-1.7-4.6-1.3-9.6-1.3-14.4c0-11,0-22,0-33c-2.5,2.5-5,5-7.5,7.5c19.3,0,38.7,0,58,0
					c-2.5-2.5-5-5-7.5-7.5c0,11,0,22,0,33c0,5,0.2,9.6-1.3,14.4C229.5,182,220.7,187.3,212,187.5c-9.7,0.2-9.7,15.2,0,15
					c12.5-0.3,23-6.2,30.3-16.2c4.9-6.8,6.2-15.1,6.2-23.2c0-12.3,0-24.7,0-37c0-4.1-3.4-7.5-7.5-7.5c-19.3,0-38.7,0-58,0
					c-4.1,0-7.5,3.4-7.5,7.5c0,12.3,0,24.7,0,37c0,8.3,1.5,16.2,6.2,23.2c6.7,10.2,18.2,15.9,30.3,16.2
					C221.7,202.7,221.7,187.7,212,187.5z"/>
			</g>
		</g>
		<g>
			<g>
				<path d="M103.5,256c0-20.3,0-40.7,0-61c0-9.7-15-9.7-15,0c0,20.3,0,40.7,0,61C88.5,265.7,103.5,265.7,103.5,256L103.5,256z"/>
			</g>
		</g>
		<g>
			<g>
				<path d="M96,187.5c-9-0.2-17-5.5-20.2-14.1c-1.7-4.6-1.3-9.6-1.3-14.4c0-11,0-22,0-33c-2.5,2.5-5,5-7.5,7.5c19.3,0,38.7,0,58,0
					c-2.5-2.5-5-5-7.5-7.5c0,11,0,22,0,33c0,5,0.2,9.6-1.3,14.4C113.5,182,104.7,187.3,96,187.5c-9.7,0.2-9.7,15.2,0,15
					c12.5-0.3,23-6.2,30.3-16.2c4.9-6.8,6.2-15.1,6.2-23.2c0-12.3,0-24.7,0-37c0-4.1-3.4-7.5-7.5-7.5c-19.3,0-38.7,0-58,0
					c-4.1,0-7.5,3.4-7.5,7.5c0,12.3,0,24.7,0,37c0,8.3,1.5,16.2,6.2,23.2c6.7,10.2,18.2,15.9,30.3,16.2
					C105.7,202.7,105.7,187.7,96,187.5z"/>
			</g>
		</g>
	</g>
	<g>
		<g>
			<path d="M204.5,376.1c-0.2,21.9-11.8,41.7-30.7,52.7c-19.1,11.1-43.1,10-61.8-1.3c-18.7-11.4-29.1-32.5-28.4-54.1
				c0.7-21.7,14.1-41.1,33-51.1c18.7-9.9,41.7-8.2,59.5,2.6C193.8,335.6,204.3,355.5,204.5,376.1c0.1,9.7,15.1,9.7,15,0
				c-0.2-23.1-10.7-45.2-29-59.4c-18.8-14.6-43.2-19.4-66.1-13.5c-21.9,5.6-40.5,22-49.5,42.7c-9.5,21.8-8,46.8,3.5,67.6
				c16.6,29.9,52.6,44,85.3,35.6c32.8-8.4,55.5-39.5,55.9-72.9C219.6,366.5,204.6,366.5,204.5,376.1z"/>
		</g>
	</g>
	<g>
		<g>
			<path d="M168.5,376.1c-0.3,13.6-10.9,24.2-24.5,24.5c-13.6,0.3-24.2-11.3-24.5-24.5c-0.3-13.6,11.3-24.2,24.5-24.5
				C157.6,351.3,168.2,363,168.5,376.1c0.2,9.7,15.2,9.7,15,0c-0.5-21.8-17.7-39-39.5-39.5c-21.8-0.5-39,18.4-39.5,39.5
				c-0.5,21.8,18.4,39,39.5,39.5c21.8,0.5,39-18.4,39.5-39.5C183.7,366.5,168.7,366.5,168.5,376.1z"/>
		</g>
	</g>
	<g>
		<g>
			<g>
				<g>
					<g>
						<path d="M351.2,341.1c-8.8,7.6-15.1,17.8-16.4,29.5c-1.4,12.4,3.3,23.8,11.1,33.2c7,8.4,13,17.5,16.9,27.8
							c1.8,4.8,3.6,9.7,5.5,14.5c1.2,3.2,3.7,5.5,7.2,5.5c14.7,0,29.3,0,44,0c3.6,0,6-2.3,7.2-5.5c5.8-15.3,11.5-29.6,22.3-42.3
							c8-9.3,12.5-20.9,11.1-33.2c-1.3-11.7-7.6-21.9-16.4-29.5c-7.3-6.3-17.9,4.3-10.6,10.6c7.6,6.6,12.5,14.7,12.3,24.9
							c-0.3,11.2-9.6,19.1-15.6,27.5c-8.2,11.6-12.7,24.8-17.6,38c2.4-1.8,4.8-3.7,7.2-5.5c-14.7,0-29.3,0-44,0
							c2.4,1.8,4.8,3.7,7.2,5.5c-5-13.2-9.6-26.2-17.6-38c-6.1-8.9-14.7-16-15.6-27.5c-0.7-10.1,4.9-18.6,12.3-24.9
							C369.1,345.4,358.5,334.8,351.2,341.1L351.2,341.1z"/>
					</g>
				</g>
			</g>
		</g>
		<g>
			<g>
				<path d="M364,346.4c0-14.5,0-28.9,0-43.4c-2.5,2.5-5,5-7.5,7.5c27.3,0,54.7,0,82,0c-2.5-2.5-5-5-7.5-7.5c0,14.5,0,28.9,0,43.4
					c0,9.7,15,9.7,15,0c0-14.5,0-28.9,0-43.4c0-4.1-3.4-7.5-7.5-7.5c-27.3,0-54.7,0-82,0c-4.1,0-7.5,3.4-7.5,7.5
					c0,14.5,0,28.9,0,43.4C349,356.1,364,356.1,364,346.4L364,346.4z"/>
			</g>
		</g>
	</g>
</g>
</svg>
